<svg width="454" height="274" viewBox="0 0 454 274" fill="none" xmlns="http://www.w3.org/2000/svg">
<g clip-path="url(#clip0_1_2)">
<path d="M96.4 180V143.4H1.2V121.6L96.4 35.8H118V121.6H139.2V143.4H118V180H96.4ZM32.8 121.6H96.4V67.4L32.8 121.6ZM183.494 180C178.694 180 174.294 178.8 170.294 176.4C166.427 173.867 163.294 170.6 160.894 166.6C158.627 162.467 157.494 158.067 157.494 153.4V62.4C157.494 57.6 158.627 53.2 160.894 49.2C163.294 45.2 166.427 42 170.294 39.6C174.294 37.2 178.694 36 183.494 36H275.494C280.16 36 284.427 37.2 288.294 39.6C292.294 42 295.494 45.2 297.894 49.2C300.294 53.2 301.494 57.6 301.494 62.4V153.4C301.494 158.067 300.294 162.467 297.894 166.6C295.494 170.6 292.294 173.867 288.294 176.4C284.427 178.8 280.16 180 275.494 180H183.494ZM186.294 157.6H274.894C276.227 157.6 277.36 157.133 278.294 156.2C279.36 155.267 279.894 154.133 279.894 152.8V80.2L186.294 157.6ZM179.094 135.4L272.494 58H184.094C182.76 58 181.56 58.5333 180.494 59.6C179.56 60.5333 179.094 61.6667 179.094 63V135.4ZM409.291 180V143.4H314.091V121.6L409.291 35.8H430.891V121.6H452.091V143.4H430.891V180H409.291ZM345.691 121.6H409.291V67.4L345.691 121.6Z" fill="#E10600"/>
<path d="M23.8 248V212.05H53.25C54.45 212.05 55.55 212.35 56.55 212.95C57.55 213.55 58.3333 214.35 58.9 215.35C59.5 216.317 59.8 217.383 59.8 218.55V228.65C59.8 229.85 59.5 230.95 58.9 231.95C58.3333 232.917 57.55 233.7 56.55 234.3C55.55 234.867 54.45 235.15 53.25 235.15L29.2 235.2V248H23.8ZM30.45 229.7H53.15C53.4833 229.7 53.7667 229.583 54 229.35C54.2333 229.117 54.35 228.833 54.35 228.5V218.7C54.35 218.367 54.2333 218.083 54 217.85C53.7667 217.583 53.4833 217.45 53.15 217.45H30.45C30.1167 217.45 29.8167 217.583 29.55 217.85C29.3167 218.083 29.2 218.367 29.2 218.7V228.5C29.2 228.833 29.3167 229.117 29.55 229.35C29.8167 229.583 30.1167 229.7 30.45 229.7ZM69.6508 248C68.4508 248 67.3508 247.7 66.3508 247.1C65.3841 246.5 64.6008 245.717 64.0008 244.75C63.4341 243.783 63.1508 242.7 63.1508 241.5V230.8H87.2008V225.65C87.2008 225.317 87.0841 225.033 86.8508 224.8C86.6175 224.533 86.3341 224.4 86.0008 224.4H63.1508V219H86.1508C87.3508 219 88.4341 219.3 89.4008 219.9C90.4008 220.467 91.1841 221.25 91.7508 222.25C92.3508 223.25 92.6508 224.333 92.6508 225.5V248H69.6508ZM69.8008 242.6H87.2008V235.85H68.5508V241.35C68.5508 241.683 68.6674 241.983 68.9008 242.25C69.1674 242.483 69.4674 242.6 69.8008 242.6ZM102.222 259.45V254H119.972C120.306 254 120.589 253.867 120.822 253.6C121.089 253.367 121.222 253.083 121.222 252.75V248H103.622C102.456 248 101.372 247.717 100.372 247.15C99.3723 246.55 98.5723 245.75 97.9723 244.75C97.4056 243.75 97.1223 242.667 97.1223 241.5V225.5C97.1223 224.3 97.4223 223.217 98.0223 222.25C98.6223 221.283 99.4056 220.5 100.372 219.9C101.372 219.3 102.456 219 103.622 219H120.122C121.322 219 122.406 219.3 123.372 219.9C124.372 220.5 125.156 221.283 125.722 222.25C126.322 223.217 126.622 224.3 126.622 225.5V252.95C126.622 254.15 126.322 255.233 125.722 256.2C125.156 257.2 124.372 257.983 123.372 258.55C122.406 259.15 121.322 259.45 120.122 259.45H102.222ZM103.772 242.6H119.972C120.306 242.6 120.589 242.483 120.822 242.25C121.089 241.983 121.222 241.683 121.222 241.35V225.65C121.222 225.317 121.089 225.033 120.822 224.8C120.589 224.533 120.306 224.4 119.972 224.4H103.772C103.439 224.4 103.139 224.533 102.872 224.8C102.639 225.033 102.522 225.317 102.522 225.65V241.35C102.522 241.683 102.639 241.983 102.872 242.25C103.139 242.483 103.439 242.6 103.772 242.6ZM137.374 248C136.174 248 135.091 247.7 134.124 247.1C133.158 246.5 132.374 245.717 131.774 244.75C131.174 243.783 130.874 242.7 130.874 241.5V225.5C130.874 224.3 131.174 223.217 131.774 222.25C132.374 221.283 133.158 220.5 134.124 219.9C135.091 219.3 136.174 219 137.374 219H153.874C155.074 219 156.158 219.3 157.124 219.9C158.124 220.467 158.908 221.25 159.474 222.25C160.074 223.25 160.374 224.333 160.374 225.5V236.2H136.274V241.35C136.274 241.683 136.391 241.983 136.624 242.25C136.891 242.483 137.191 242.6 137.524 242.6H160.374V248H137.374ZM136.274 231.15H154.924V225.65C154.924 225.317 154.808 225.033 154.574 224.8C154.341 224.533 154.058 224.4 153.724 224.4H137.524C137.191 224.4 136.891 224.533 136.624 224.8C136.391 225.033 136.274 225.317 136.274 225.65V231.15ZM283.269 248V216C283.269 214.8 283.552 213.717 284.119 212.75C284.719 211.75 285.502 210.967 286.469 210.4C287.469 209.8 288.569 209.5 289.769 209.5H300.569V214.9H289.919C289.586 214.9 289.286 215.033 289.019 215.3C288.786 215.533 288.669 215.817 288.669 216.15V219H300.569V224.4H288.669V248H283.269ZM310.812 248C309.612 248 308.528 247.7 307.562 247.1C306.595 246.5 305.812 245.717 305.212 244.75C304.612 243.783 304.312 242.7 304.312 241.5V225.5C304.312 224.3 304.612 223.217 305.212 222.25C305.812 221.283 306.595 220.5 307.562 219.9C308.528 219.3 309.612 219 310.812 219H327.312C328.512 219 329.595 219.3 330.562 219.9C331.562 220.467 332.345 221.25 332.912 222.25C333.512 223.25 333.812 224.333 333.812 225.5V241.5C333.812 242.7 333.512 243.783 332.912 244.75C332.345 245.717 331.562 246.5 330.562 247.1C329.595 247.7 328.512 248 327.312 248H310.812ZM310.962 242.6H327.162C327.495 242.6 327.778 242.483 328.012 242.25C328.245 241.983 328.362 241.683 328.362 241.35V225.65C328.362 225.317 328.245 225.033 328.012 224.8C327.778 224.533 327.495 224.4 327.162 224.4H310.962C310.628 224.4 310.328 224.533 310.062 224.8C309.828 225.033 309.712 225.317 309.712 225.65V241.35C309.712 241.683 309.828 241.983 310.062 242.25C310.328 242.483 310.628 242.6 310.962 242.6ZM344.31 248C343.11 248 342.01 247.7 341.01 247.1C340.043 246.5 339.26 245.717 338.66 244.75C338.093 243.783 337.81 242.7 337.81 241.5V219H343.21V241.35C343.21 241.683 343.327 241.983 343.56 242.25C343.827 242.483 344.127 242.6 344.46 242.6H360.66C360.993 242.6 361.277 242.483 361.51 242.25C361.777 241.983 361.91 241.683 361.91 241.35V219H367.31V241.5C367.31 242.7 367.01 243.783 366.41 244.75C365.843 245.717 365.06 246.5 364.06 247.1C363.093 247.7 362.01 248 360.81 248H344.31ZM372.772 248V219H395.772C396.972 219 398.056 219.3 399.022 219.9C400.022 220.5 400.806 221.283 401.372 222.25C401.972 223.217 402.272 224.3 402.272 225.5V248H396.872V225.65C396.872 225.317 396.739 225.033 396.472 224.8C396.239 224.533 395.956 224.4 395.622 224.4H379.422C379.089 224.4 378.789 224.533 378.522 224.8C378.289 225.033 378.172 225.317 378.172 225.65V248H372.772ZM412.537 248C411.337 248 410.237 247.717 409.237 247.15C408.27 246.55 407.487 245.75 406.887 244.75C406.32 243.75 406.037 242.667 406.037 241.5V225.5C406.037 224.3 406.32 223.217 406.887 222.25C407.487 221.283 408.27 220.5 409.237 219.9C410.237 219.3 411.337 219 412.537 219H430.137V209.5H435.537V248H412.537ZM412.737 242.6H428.937C429.27 242.6 429.553 242.483 429.787 242.25C430.02 241.983 430.137 241.683 430.137 241.35V225.65C430.137 225.317 430.02 225.033 429.787 224.8C429.553 224.533 429.27 224.4 428.937 224.4H412.737C412.403 224.4 412.103 224.533 411.837 224.8C411.603 225.033 411.487 225.317 411.487 225.65V241.35C411.487 241.683 411.603 241.983 411.837 242.25C412.103 242.483 412.403 242.6 412.737 242.6Z" fill="white"/>
<path d="M180.145 248V219H203.145C204.345 219 205.429 219.3 206.395 219.9C207.395 220.5 208.179 221.283 208.745 222.25C209.345 223.217 209.645 224.3 209.645 225.5V248H204.245V225.65C204.245 225.317 204.112 225.033 203.845 224.8C203.612 224.533 203.329 224.4 202.995 224.4H186.795C186.462 224.4 186.162 224.533 185.895 224.8C185.662 225.033 185.545 225.317 185.545 225.65V248H180.145ZM220.382 248C219.182 248 218.099 247.7 217.132 247.1C216.165 246.5 215.382 245.717 214.782 244.75C214.182 243.783 213.882 242.7 213.882 241.5V225.5C213.882 224.3 214.182 223.217 214.782 222.25C215.382 221.283 216.165 220.5 217.132 219.9C218.099 219.3 219.182 219 220.382 219H236.882C238.082 219 239.165 219.3 240.132 219.9C241.132 220.467 241.915 221.25 242.482 222.25C243.082 223.25 243.382 224.333 243.382 225.5V241.5C243.382 242.7 243.082 243.783 242.482 244.75C241.915 245.717 241.132 246.5 240.132 247.1C239.165 247.7 238.082 248 236.882 248H220.382ZM220.532 242.6H236.732C237.065 242.6 237.349 242.483 237.582 242.25C237.815 241.983 237.932 241.683 237.932 241.35V225.65C237.932 225.317 237.815 225.033 237.582 224.8C237.349 224.533 237.065 224.4 236.732 224.4H220.532C220.199 224.4 219.899 224.533 219.632 224.8C219.399 225.033 219.282 225.317 219.282 225.65V241.35C219.282 241.683 219.399 241.983 219.632 242.25C219.899 242.483 220.199 242.6 220.532 242.6ZM254.027 248C252.827 248 251.727 247.7 250.727 247.1C249.76 246.5 248.977 245.717 248.377 244.75C247.81 243.783 247.527 242.7 247.527 241.5V209.85H252.927V219H264.827V224.4H252.927V241.35C252.927 241.683 253.044 241.983 253.277 242.25C253.544 242.483 253.844 242.6 254.177 242.6H264.827V248H254.027Z" fill="#E10600"/>
</g>
<defs>
<clipPath id="clip0_1_2">
<rect width="454" height="274" fill="white"/>
</clipPath>
</defs>
</svg>
